<?xml version="1.0" standalone="no"?>
<!DOCTYPE svg PUBLIC "-//W3C//DTD SVG 1.1//EN"
  "http://www.w3.org/Graphics/SVG/1.1/DTD/svg11.dtd">
<svg width="459mm" height="172mm" viewBox="-139 -89 459 172" xmlns="http://www.w3.org/2000/svg" version="1.1">
	<title>svgOutput</title>
	<desc>made with tinkercad</desc>
<path d="M -138 54.1279411315918 L -138 -60.81700134277344 L -118.00299835205078 -80.81400299072266 L -114.99800109863281 -83.81900024414062 L -110.81700134277344 -88 L -23.003000259399414 -88 L -18.49799919128418 -88 L 198.4980010986328 -88 L 203.0030059814453 -88 L 293.8179016113281 -88 L 302.4319763183594 -79.38566589355469 L 304.7287902832031 -77.0887680053711 L 319 -62.81711959838867 L 319 56.12799835205078 L 298.8080139160156 76.31999969482422 L 295.8030090332031 79.32499694824219 L 293.12799072265625 82 L 238.82614135742188 82 L 235.5802459716797 82 L 203.0030059814453 82 L 198.4980010986328 82 L -18.49799919128418 82 L -23.003000259399414 82 L -54.773773193359375 82 L -58.02159881591797 82 L -110.12706756591797 82 L -114.99800109863281 77.12921905517578 L -118.00299835205078 74.12431335449219 L -138 54.1279411315918 M -75.96399688720703 38.68600082397461 L -73.19200134277344 37.53799819946289 L -112.23100280761719 -56.702999114990234 L -114.99800109863281 -55.555660247802734 L -115.00199890136719 -55.55400085449219 L -114.99800109863281 -55.544342041015625 L -75.96399688720703 38.68600082397461 M 203.0030059814453 55.50199890136719 L 203.0030059814453 -61.50299835205078 L 198.4980010986328 -61.50299835205078 L 198.4980010986328 55.50199890136719 L 203.0030059814453 55.50199890136719 M -118.00299835205078 46.50199890136719 L -114.99800109863281 46.50199890136719 L -114.99800109863281 -55.50299835205078 L -118.00299835205078 -55.50299835205078 L -118.00299835205078 46.50199890136719 M 256.7690124511719 38.68600082397461 L 295.8030090332031 -55.54193115234375 L 295.8080139160156 -55.55400085449219 L 293.0360107421875 -56.702999114990234 L 253.9980010986328 37.53799819946289 L 256.7690124511719 38.68600082397461 M -18.49799919128418 -61.50299835205078 L -23.003000259399414 -61.50299835205078 L -23.003000259399414 55.50199890136719 L -18.49799919128418 55.50199890136719 L -18.49799919128418 -61.50299835205078 M 298.8080139160156 -55.50299835205078 L 295.8030090332031 -55.50299835205078 L 295.8030090332031 46.50199890136719 L 298.8080139160156 46.50199890136719 L 298.8080139160156 -55.50299835205078 z" fill="none" stroke="rgb(255,0,0)" stroke-width="0.001mm" />
</svg>